<svg width="39" height="41" viewBox="0 0 39 41" fill="none" xmlns="http://www.w3.org/2000/svg">
<path d="M19.3439 0C15.518 0 11.7781 1.2023 8.597 3.45487C5.41592 5.70744 2.93657 8.9091 1.47247 12.655C0.00838139 16.4009 -0.374692 20.5227 0.371696 24.4993C1.11808 28.476 2.96041 32.1287 5.6657 34.9957C8.37099 37.8627 11.8177 39.8151 15.5701 40.6061C19.3224 41.3971 23.2118 40.9911 26.7465 39.4395C30.2811 37.8879 33.3022 35.2604 35.4277 31.8892C37.5533 28.518 38.6878 24.5545 38.6878 20.5C38.6878 15.0631 36.6497 9.84881 33.0221 6.00431C29.3944 2.15982 24.4742 0 19.3439 0V0ZM25.8947 11.5908H22.9408C22.3862 11.5908 21.8543 11.8243 21.4621 12.2399C21.0699 12.6555 20.8496 13.2192 20.8496 13.807V17.0261H25.6698V21.7743H20.8287V34.5674H15.9822V21.7743H12.814V17.0316H15.9822V13.8126C15.9864 11.8596 16.7213 9.98816 18.0259 8.60878C19.3304 7.22939 21.098 6.45472 22.9408 6.45473H25.8947V11.5908Z" fill="#1A3E76"/>
</svg>
