<svg width="40" height="42" viewBox="0 0 40 42" fill="none" xmlns="http://www.w3.org/2000/svg">
<path d="M26.053 11.7432H13.6481C13.352 11.7424 13.0587 11.8037 12.785 11.9234C12.5114 12.0432 12.2627 12.219 12.0534 12.4409C11.844 12.6627 11.6781 12.9262 11.5651 13.2163C11.4521 13.5063 11.3943 13.8171 11.395 14.1309V27.2772C11.4006 27.906 11.6406 28.5071 12.0627 28.9491C12.4847 29.3912 13.0546 29.6384 13.6481 29.6369H26.053C26.6418 29.6311 27.205 29.3806 27.6214 28.9393C28.0378 28.498 28.2741 27.9012 28.2796 27.2772V14.1309C28.2811 13.502 28.0478 12.898 27.6306 12.4507C27.2135 12.0034 26.6464 11.7491 26.053 11.7432ZM19.8373 26.2818C18.7937 26.2818 17.7736 25.9539 16.9059 25.3395C16.0382 24.725 15.3619 23.8517 14.9625 22.8299C14.5632 21.8082 14.4587 20.6838 14.6623 19.5991C14.8659 18.5144 15.3684 17.5181 16.1063 16.736C16.8442 15.954 17.7844 15.4215 18.8079 15.2057C19.8315 14.9899 20.8924 15.1007 21.8565 15.5239C22.8207 15.9471 23.6447 16.6638 24.2245 17.5834C24.8043 18.503 25.1138 19.5841 25.1138 20.69C25.1138 22.1731 24.5579 23.5954 23.5683 24.644C22.5788 25.6927 21.2367 26.2818 19.8373 26.2818ZM25.1138 16.2166C24.9051 16.2166 24.701 16.151 24.5275 16.0281C24.3539 15.9052 24.2187 15.7306 24.1388 15.5262C24.0589 15.3219 24.038 15.097 24.0788 14.8801C24.1195 14.6631 24.22 14.4639 24.3676 14.3074C24.5152 14.151 24.7032 14.0445 24.9079 14.0014C25.1126 13.9582 25.3248 13.9804 25.5176 14.065C25.7104 14.1497 25.8753 14.293 25.9912 14.4769C26.1072 14.6608 26.1691 14.8771 26.1691 15.0982C26.1691 15.3949 26.0579 15.6793 25.86 15.889C25.6621 16.0988 25.3937 16.2166 25.1138 16.2166Z" fill="#1A3E76"/>
<path d="M19.8465 24.0554C21.595 24.0554 23.0124 22.5533 23.0124 20.7003C23.0124 18.8473 21.595 17.3452 19.8465 17.3452C18.0981 17.3452 16.6807 18.8473 16.6807 20.7003C16.6807 22.5533 18.0981 24.0554 19.8465 24.0554Z" fill="#1A3E76"/>
<path d="M19.837 0C15.9758 0 12.2013 1.21343 8.99075 3.48684C5.78023 5.76024 3.27794 8.99153 1.8003 12.7721C0.322668 16.5526 -0.0639493 20.7126 0.689344 24.726C1.44264 28.7394 3.30201 32.4259 6.03232 35.3194C8.76264 38.2129 12.2413 40.1834 16.0283 40.9818C19.8154 41.7801 23.7408 41.3703 27.3081 39.8044C30.8754 38.2384 33.9245 35.5866 36.0697 32.1842C38.2149 28.7818 39.3599 24.7817 39.3599 20.6897C39.3599 15.2024 37.303 9.93992 33.6418 6.05986C29.9805 2.1798 25.0148 0 19.837 0V0ZM30.3899 27.2768C30.3844 28.494 29.9256 29.6597 29.1135 30.5205C28.3013 31.3812 27.2013 31.8674 26.0527 31.8732H13.6478C12.4946 31.8747 11.3879 31.3918 10.57 30.5303C9.75212 29.6688 9.28975 28.4989 9.28417 27.2768V14.1305C9.28347 13.523 9.39587 12.9213 9.61491 12.3599C9.83396 11.7985 10.1554 11.2884 10.5607 10.8589C10.966 10.4293 11.4473 10.0887 11.9771 9.85657C12.5068 9.62443 13.0746 9.50532 13.6478 9.50606H26.0527C27.2059 9.51197 28.3098 10.002 29.1227 10.8687C29.9357 11.7355 30.3913 12.9084 30.3899 14.1305V27.2768Z" fill="#1A3E76"/>
</svg>
